<svg id="visual" viewBox="0 0 1024 1366" width="1024" height="1366" xmlns="http://www.w3.org/2000/svg" xmlns:xlink="http://www.w3.org/1999/xlink" version="1.1"><rect x="0" y="0" width="1024" height="1366" fill="#09090B"></rect><defs><linearGradient id="grad1_0" x1="0%" y1="0%" x2="100%" y2="100%"><stop offset="30%" stop-color="#007b5c" stop-opacity="1"></stop><stop offset="70%" stop-color="#007b5c" stop-opacity="1"></stop></linearGradient></defs><defs><linearGradient id="grad1_1" x1="0%" y1="0%" x2="100%" y2="100%"><stop offset="30%" stop-color="#007b5c" stop-opacity="1"></stop><stop offset="70%" stop-color="#006460" stop-opacity="1"></stop></linearGradient></defs><defs><linearGradient id="grad1_2" x1="0%" y1="0%" x2="100%" y2="100%"><stop offset="30%" stop-color="#004b57" stop-opacity="1"></stop><stop offset="70%" stop-color="#006460" stop-opacity="1"></stop></linearGradient></defs><defs><linearGradient id="grad1_3" x1="0%" y1="0%" x2="100%" y2="100%"><stop offset="30%" stop-color="#004b57" stop-opacity="1"></stop><stop offset="70%" stop-color="#0a3444" stop-opacity="1"></stop></linearGradient></defs><defs><linearGradient id="grad1_4" x1="0%" y1="0%" x2="100%" y2="100%"><stop offset="30%" stop-color="#151e29" stop-opacity="1"></stop><stop offset="70%" stop-color="#0a3444" stop-opacity="1"></stop></linearGradient></defs><defs><linearGradient id="grad1_5" x1="0%" y1="0%" x2="100%" y2="100%"><stop offset="30%" stop-color="#151e29" stop-opacity="1"></stop><stop offset="70%" stop-color="#09090b" stop-opacity="1"></stop></linearGradient></defs><defs><linearGradient id="grad2_0" x1="0%" y1="0%" x2="100%" y2="100%"><stop offset="30%" stop-color="#007b5c" stop-opacity="1"></stop><stop offset="70%" stop-color="#007b5c" stop-opacity="1"></stop></linearGradient></defs><defs><linearGradient id="grad2_1" x1="0%" y1="0%" x2="100%" y2="100%"><stop offset="30%" stop-color="#006460" stop-opacity="1"></stop><stop offset="70%" stop-color="#007b5c" stop-opacity="1"></stop></linearGradient></defs><defs><linearGradient id="grad2_2" x1="0%" y1="0%" x2="100%" y2="100%"><stop offset="30%" stop-color="#006460" stop-opacity="1"></stop><stop offset="70%" stop-color="#004b57" stop-opacity="1"></stop></linearGradient></defs><defs><linearGradient id="grad2_3" x1="0%" y1="0%" x2="100%" y2="100%"><stop offset="30%" stop-color="#0a3444" stop-opacity="1"></stop><stop offset="70%" stop-color="#004b57" stop-opacity="1"></stop></linearGradient></defs><defs><linearGradient id="grad2_4" x1="0%" y1="0%" x2="100%" y2="100%"><stop offset="30%" stop-color="#0a3444" stop-opacity="1"></stop><stop offset="70%" stop-color="#151e29" stop-opacity="1"></stop></linearGradient></defs><defs><linearGradient id="grad2_5" x1="0%" y1="0%" x2="100%" y2="100%"><stop offset="30%" stop-color="#09090b" stop-opacity="1"></stop><stop offset="70%" stop-color="#151e29" stop-opacity="1"></stop></linearGradient></defs><g transform="translate(1024, 0)"><path d="M0 725.6C-64.1 722.5 -128.1 719.4 -187.8 700.8C-247.5 682.2 -302.7 648.1 -352.5 610.5C-402.3 573 -446.5 532.2 -488.6 488.6C-530.7 445.1 -570.6 398.8 -601.9 347.5C-633.2 296.2 -656 239.7 -675.2 180.9C-694.4 122.1 -710 61.1 -725.6 0L0 0Z" fill="#13151b"></path><path d="M0 604.6C-53.4 602.1 -106.8 599.5 -156.5 584C-206.2 568.5 -252.3 540.1 -293.7 508.8C-335.2 477.5 -372.1 443.5 -407.2 407.2C-442.2 370.9 -475.5 332.4 -501.6 289.6C-527.7 246.8 -546.7 199.7 -562.7 150.8C-578.6 101.8 -591.6 50.9 -604.6 0L0 0Z" fill="#142937"></path><path d="M0 483.7C-42.7 481.7 -85.4 479.6 -125.2 467.2C-165 454.8 -201.8 432 -235 407C-268.2 382 -297.7 354.8 -325.7 325.7C-353.8 296.7 -380.4 265.9 -401.3 231.7C-422.1 197.4 -437.3 159.8 -450.1 120.6C-462.9 81.4 -473.3 40.7 -483.7 0L0 0Z" fill="#003f4f"></path><path d="M0 362.8C-32 361.3 -64.1 359.7 -93.9 350.4C-123.7 341.1 -151.4 324 -176.2 305.3C-201.1 286.5 -223.3 266.1 -244.3 244.3C-265.3 222.5 -285.3 199.4 -300.9 173.8C-316.6 148.1 -328 119.8 -337.6 90.5C-347.2 61.1 -355 30.5 -362.8 0L0 0Z" fill="#00585d"></path><path d="M0 241.9C-21.4 240.8 -42.7 239.8 -62.6 233.6C-82.5 227.4 -100.9 216 -117.5 203.5C-134.1 191 -148.8 177.4 -162.9 162.9C-176.9 148.4 -190.2 132.9 -200.6 115.8C-211.1 98.7 -218.7 79.9 -225.1 60.3C-231.5 40.7 -236.7 20.4 -241.9 0L0 0Z" fill="#006f5f"></path><path d="M0 120.9C-10.7 120.4 -21.4 119.9 -31.3 116.8C-41.2 113.7 -50.5 108 -58.7 101.8C-67 95.5 -74.4 88.7 -81.4 81.4C-88.4 74.2 -95.1 66.5 -100.3 57.9C-105.5 49.4 -109.3 39.9 -112.5 30.2C-115.7 20.4 -118.3 10.2 -120.9 0L0 0Z" fill="#007b5c"></path></g><g transform="translate(0, 1366)"><path d="M0 -725.6C65.3 -724.3 130.5 -723.1 187.8 -700.8C245.1 -678.6 294.3 -635.3 347 -601C399.7 -566.8 455.7 -541.5 502.8 -502.8C549.8 -464 587.9 -411.6 617.5 -356.5C647.1 -301.4 668.2 -243.4 684.8 -183.5C701.4 -123.6 713.5 -61.8 725.6 0L0 0Z" fill="#13151b"></path><path d="M0 -604.6C54.4 -603.6 108.8 -602.6 156.5 -584C204.2 -565.5 245.3 -529.4 289.2 -500.9C333.1 -472.3 379.8 -451.3 419 -419C458.2 -386.6 489.9 -343 514.6 -297.1C539.2 -251.1 556.9 -202.8 570.7 -152.9C584.5 -103 594.6 -51.5 604.6 0L0 0Z" fill="#142937"></path><path d="M0 -483.7C43.5 -482.9 87 -482.1 125.2 -467.2C163.4 -452.4 196.2 -423.5 231.3 -400.7C266.4 -377.8 303.8 -361 335.2 -335.2C366.5 -309.3 391.9 -274.4 411.7 -237.7C431.4 -200.9 445.5 -162.3 456.6 -122.3C467.6 -82.4 475.7 -41.2 483.7 0L0 0Z" fill="#003f4f"></path><path d="M0 -362.8C32.6 -362.2 65.3 -361.5 93.9 -350.4C122.5 -339.3 147.2 -317.6 173.5 -300.5C199.8 -283.4 227.9 -270.8 251.4 -251.4C274.9 -232 293.9 -205.8 308.7 -178.3C323.5 -150.7 334.1 -121.7 342.4 -91.8C350.7 -61.8 356.8 -30.9 362.8 0L0 0Z" fill="#00585d"></path><path d="M0 -241.9C21.8 -241.4 43.5 -241 62.6 -233.6C81.7 -226.2 98.1 -211.8 115.7 -200.3C133.2 -188.9 151.9 -180.5 167.6 -167.6C183.3 -154.7 196 -137.2 205.8 -118.8C215.7 -100.5 222.7 -81.1 228.3 -61.2C233.8 -41.2 237.8 -20.6 241.9 0L0 0Z" fill="#006f5f"></path><path d="M0 -120.9C10.9 -120.7 21.8 -120.5 31.3 -116.8C40.8 -113.1 49.1 -105.9 57.8 -100.2C66.6 -94.5 76 -90.3 83.8 -83.8C91.6 -77.3 98 -68.6 102.9 -59.4C107.8 -50.2 111.4 -40.6 114.1 -30.6C116.9 -20.6 118.9 -10.3 120.9 0L0 0Z" fill="#007b5c"></path></g></svg>