<svg id="visual" viewBox="0 0 500 950" width="500" height="950" xmlns="http://www.w3.org/2000/svg" xmlns:xlink="http://www.w3.org/1999/xlink" version="1.1"><rect x="0" y="0" width="500" height="950" fill="#09090B"></rect><defs><linearGradient id="grad1_0" x1="0%" y1="0%" x2="100%" y2="100%"><stop offset="30%" stop-color="#007b5c" stop-opacity="1"></stop><stop offset="70%" stop-color="#007b5c" stop-opacity="1"></stop></linearGradient></defs><defs><linearGradient id="grad1_1" x1="0%" y1="0%" x2="100%" y2="100%"><stop offset="30%" stop-color="#007b5c" stop-opacity="1"></stop><stop offset="70%" stop-color="#006460" stop-opacity="1"></stop></linearGradient></defs><defs><linearGradient id="grad1_2" x1="0%" y1="0%" x2="100%" y2="100%"><stop offset="30%" stop-color="#004b57" stop-opacity="1"></stop><stop offset="70%" stop-color="#006460" stop-opacity="1"></stop></linearGradient></defs><defs><linearGradient id="grad1_3" x1="0%" y1="0%" x2="100%" y2="100%"><stop offset="30%" stop-color="#004b57" stop-opacity="1"></stop><stop offset="70%" stop-color="#0a3444" stop-opacity="1"></stop></linearGradient></defs><defs><linearGradient id="grad1_4" x1="0%" y1="0%" x2="100%" y2="100%"><stop offset="30%" stop-color="#151e29" stop-opacity="1"></stop><stop offset="70%" stop-color="#0a3444" stop-opacity="1"></stop></linearGradient></defs><defs><linearGradient id="grad1_5" x1="0%" y1="0%" x2="100%" y2="100%"><stop offset="30%" stop-color="#151e29" stop-opacity="1"></stop><stop offset="70%" stop-color="#09090b" stop-opacity="1"></stop></linearGradient></defs><defs><linearGradient id="grad2_0" x1="0%" y1="0%" x2="100%" y2="100%"><stop offset="30%" stop-color="#007b5c" stop-opacity="1"></stop><stop offset="70%" stop-color="#007b5c" stop-opacity="1"></stop></linearGradient></defs><defs><linearGradient id="grad2_1" x1="0%" y1="0%" x2="100%" y2="100%"><stop offset="30%" stop-color="#006460" stop-opacity="1"></stop><stop offset="70%" stop-color="#007b5c" stop-opacity="1"></stop></linearGradient></defs><defs><linearGradient id="grad2_2" x1="0%" y1="0%" x2="100%" y2="100%"><stop offset="30%" stop-color="#006460" stop-opacity="1"></stop><stop offset="70%" stop-color="#004b57" stop-opacity="1"></stop></linearGradient></defs><defs><linearGradient id="grad2_3" x1="0%" y1="0%" x2="100%" y2="100%"><stop offset="30%" stop-color="#0a3444" stop-opacity="1"></stop><stop offset="70%" stop-color="#004b57" stop-opacity="1"></stop></linearGradient></defs><defs><linearGradient id="grad2_4" x1="0%" y1="0%" x2="100%" y2="100%"><stop offset="30%" stop-color="#0a3444" stop-opacity="1"></stop><stop offset="70%" stop-color="#151e29" stop-opacity="1"></stop></linearGradient></defs><defs><linearGradient id="grad2_5" x1="0%" y1="0%" x2="100%" y2="100%"><stop offset="30%" stop-color="#09090b" stop-opacity="1"></stop><stop offset="70%" stop-color="#151e29" stop-opacity="1"></stop></linearGradient></defs><g transform="translate(500, 0)"><path d="M0 425C-37.7 423.5 -75.3 421.9 -110 410.5C-144.7 399.1 -176.4 377.9 -205.5 355.9C-234.6 334 -261.1 311.4 -287.1 287.1C-313 262.8 -338.4 236.9 -358.5 207C-378.7 177.1 -393.6 143.3 -403.8 108.2C-414 73 -419.5 36.5 -425 0L0 0Z" fill="#13151b"></path><path d="M0 354.2C-31.4 352.9 -62.8 351.6 -91.7 342.1C-120.6 332.6 -147 314.9 -171.2 296.6C-195.5 278.3 -217.6 259.5 -239.2 239.2C-260.9 219 -282 197.4 -298.8 172.5C-315.6 147.6 -328 119.5 -336.5 90.2C-345 60.9 -349.6 30.4 -354.2 0L0 0Z" fill="#142937"></path><path d="M0 283.3C-25.1 282.3 -50.2 281.3 -73.3 273.7C-96.5 266.1 -117.6 251.9 -137 237.3C-156.4 222.7 -174.1 207.6 -191.4 191.4C-208.7 175.2 -225.6 157.9 -239 138C-252.4 118.1 -262.4 95.6 -269.2 72.1C-276 48.7 -279.7 24.3 -283.3 0L0 0Z" fill="#003f4f"></path><path d="M0 212.5C-18.8 211.7 -37.7 211 -55 205.3C-72.3 199.6 -88.2 188.9 -102.7 178C-117.3 167 -130.6 155.7 -143.5 143.5C-156.5 131.4 -169.2 118.4 -179.3 103.5C-189.3 88.6 -196.8 71.7 -201.9 54.1C-207 36.5 -209.7 18.3 -212.5 0L0 0Z" fill="#00585d"></path><path d="M0 141.7C-12.6 141.2 -25.1 140.6 -36.7 136.8C-48.2 133 -58.8 126 -68.5 118.6C-78.2 111.3 -87 103.8 -95.7 95.7C-104.3 87.6 -112.8 79 -119.5 69C-126.2 59 -131.2 47.8 -134.6 36.1C-138 24.3 -139.8 12.2 -141.7 0L0 0Z" fill="#006f5f"></path><path d="M0 70.8C-6.3 70.6 -12.6 70.3 -18.3 68.4C-24.1 66.5 -29.4 63 -34.2 59.3C-39.1 55.7 -43.5 51.9 -47.8 47.8C-52.2 43.8 -56.4 39.5 -59.8 34.5C-63.1 29.5 -65.6 23.9 -67.3 18C-69 12.2 -69.9 6.1 -70.8 0L0 0Z" fill="#007b5c"></path></g><g transform="translate(0, 950)"><path d="M0 -425C35.3 -414.1 70.6 -403.2 105.1 -392.2C139.6 -381.2 173.2 -370.1 204 -353.3C234.8 -336.6 262.7 -314.2 290.6 -290.6C318.5 -267 346.3 -242.2 367.2 -212C388.1 -181.8 402 -146.2 410.5 -110C419 -73.8 422 -36.9 425 0L0 0Z" fill="#13151b"></path><path d="M0 -354.2C29.4 -345.1 58.8 -336 87.6 -326.8C116.3 -317.6 144.3 -308.4 170 -294.4C195.7 -280.5 219 -261.9 242.2 -242.2C265.4 -222.5 288.6 -201.8 306 -176.7C323.4 -151.5 335 -121.9 342.1 -91.7C349.2 -61.5 351.7 -30.7 354.2 0L0 0Z" fill="#142937"></path><path d="M0 -283.3C23.5 -276.1 47.1 -268.8 70.1 -261.4C93 -254.1 115.5 -246.7 136 -235.6C156.5 -224.4 175.2 -209.5 193.7 -193.7C212.3 -178 230.9 -161.5 244.8 -141.3C258.7 -121.2 268 -97.5 273.7 -73.3C279.3 -49.2 281.3 -24.6 283.3 0L0 0Z" fill="#003f4f"></path><path d="M0 -212.5C17.7 -207 35.3 -201.6 52.5 -196.1C69.8 -190.6 86.6 -185 102 -176.7C117.4 -168.3 131.4 -157.1 145.3 -145.3C159.2 -133.5 173.2 -121.1 183.6 -106C194 -90.9 201 -73.1 205.3 -55C209.5 -36.9 211 -18.4 212.5 0L0 0Z" fill="#00585d"></path><path d="M0 -141.7C11.8 -138 23.5 -134.4 35 -130.7C46.5 -127.1 57.7 -123.4 68 -117.8C78.3 -112.2 87.6 -104.7 96.9 -96.9C106.2 -89 115.4 -80.7 122.4 -70.7C129.4 -60.6 134 -48.7 136.8 -36.7C139.7 -24.6 140.7 -12.3 141.7 0L0 0Z" fill="#006f5f"></path><path d="M0 -70.8C5.9 -69 11.8 -67.2 17.5 -65.4C23.3 -63.5 28.9 -61.7 34 -58.9C39.1 -56.1 43.8 -52.4 48.4 -48.4C53.1 -44.5 57.7 -40.4 61.2 -35.3C64.7 -30.3 67 -24.4 68.4 -18.3C69.8 -12.3 70.3 -6.1 70.8 0L0 0Z" fill="#007b5c"></path></g></svg>