<svg id="visual" viewBox="0 0 1920 1080" width="1920" height="1080" xmlns="http://www.w3.org/2000/svg" xmlns:xlink="http://www.w3.org/1999/xlink" version="1.1"><rect x="0" y="0" width="1920" height="1080" fill="#09090B"></rect><defs><linearGradient id="grad1_0" x1="43.8%" y1="0%" x2="100%" y2="100%"><stop offset="14.444444444444446%" stop-color="#198754" stop-opacity="1"></stop><stop offset="85.55555555555554%" stop-color="#198754" stop-opacity="1"></stop></linearGradient></defs><defs><linearGradient id="grad1_1" x1="43.8%" y1="0%" x2="100%" y2="100%"><stop offset="14.444444444444446%" stop-color="#198754" stop-opacity="1"></stop><stop offset="85.55555555555554%" stop-color="#006e60" stop-opacity="1"></stop></linearGradient></defs><defs><linearGradient id="grad1_2" x1="43.8%" y1="0%" x2="100%" y2="100%"><stop offset="14.444444444444446%" stop-color="#00535d" stop-opacity="1"></stop><stop offset="85.55555555555554%" stop-color="#006e60" stop-opacity="1"></stop></linearGradient></defs><defs><linearGradient id="grad1_3" x1="43.8%" y1="0%" x2="100%" y2="100%"><stop offset="14.444444444444446%" stop-color="#00535d" stop-opacity="1"></stop><stop offset="85.55555555555554%" stop-color="#00394a" stop-opacity="1"></stop></linearGradient></defs><defs><linearGradient id="grad1_4" x1="43.8%" y1="0%" x2="100%" y2="100%"><stop offset="14.444444444444446%" stop-color="#14212d" stop-opacity="1"></stop><stop offset="85.55555555555554%" stop-color="#00394a" stop-opacity="1"></stop></linearGradient></defs><defs><linearGradient id="grad1_5" x1="43.8%" y1="0%" x2="100%" y2="100%"><stop offset="14.444444444444446%" stop-color="#14212d" stop-opacity="1"></stop><stop offset="85.55555555555554%" stop-color="#09090b" stop-opacity="1"></stop></linearGradient></defs><defs><linearGradient id="grad2_0" x1="0%" y1="0%" x2="56.3%" y2="100%"><stop offset="14.444444444444446%" stop-color="#198754" stop-opacity="1"></stop><stop offset="85.55555555555554%" stop-color="#198754" stop-opacity="1"></stop></linearGradient></defs><defs><linearGradient id="grad2_1" x1="0%" y1="0%" x2="56.3%" y2="100%"><stop offset="14.444444444444446%" stop-color="#006e60" stop-opacity="1"></stop><stop offset="85.55555555555554%" stop-color="#198754" stop-opacity="1"></stop></linearGradient></defs><defs><linearGradient id="grad2_2" x1="0%" y1="0%" x2="56.3%" y2="100%"><stop offset="14.444444444444446%" stop-color="#006e60" stop-opacity="1"></stop><stop offset="85.55555555555554%" stop-color="#00535d" stop-opacity="1"></stop></linearGradient></defs><defs><linearGradient id="grad2_3" x1="0%" y1="0%" x2="56.3%" y2="100%"><stop offset="14.444444444444446%" stop-color="#00394a" stop-opacity="1"></stop><stop offset="85.55555555555554%" stop-color="#00535d" stop-opacity="1"></stop></linearGradient></defs><defs><linearGradient id="grad2_4" x1="0%" y1="0%" x2="56.3%" y2="100%"><stop offset="14.444444444444446%" stop-color="#00394a" stop-opacity="1"></stop><stop offset="85.55555555555554%" stop-color="#14212d" stop-opacity="1"></stop></linearGradient></defs><defs><linearGradient id="grad2_5" x1="0%" y1="0%" x2="56.3%" y2="100%"><stop offset="14.444444444444446%" stop-color="#09090b" stop-opacity="1"></stop><stop offset="85.55555555555554%" stop-color="#14212d" stop-opacity="1"></stop></linearGradient></defs><g transform="translate(1920, 0)"><path d="M0 864C-91.1 848.8 -182.2 833.6 -259 797C-335.7 760.4 -398 702.4 -476.7 656.1C-555.4 609.8 -650.4 575.3 -699 507.8C-747.6 440.4 -749.6 340.1 -769.4 250C-789.2 159.9 -826.6 79.9 -864 0L0 0Z" fill="#13161d"></path><path d="M0 720C-75.9 707.3 -151.9 694.7 -215.8 664.2C-279.7 633.7 -331.7 585.3 -397.2 546.8C-462.8 508.2 -542 479.4 -582.5 423.2C-623 367 -624.7 283.4 -641.2 208.3C-657.6 133.2 -688.8 66.6 -720 0L0 0Z" fill="#0e2c3c"></path><path d="M0 576C-60.7 565.9 -121.5 555.7 -172.6 531.3C-223.8 506.9 -265.3 468.3 -317.8 437.4C-370.3 406.6 -433.6 383.5 -466 338.6C-498.4 293.6 -499.8 226.7 -512.9 166.7C-526.1 106.6 -551.1 53.3 -576 0L0 0Z" fill="#004656"></path><path d="M0 432C-45.6 424.4 -91.1 416.8 -129.5 398.5C-167.8 380.2 -199 351.2 -238.3 328.1C-277.7 304.9 -325.2 287.6 -349.5 253.9C-373.8 220.2 -374.8 170.1 -384.7 125C-394.6 79.9 -413.3 40 -432 0L0 0Z" fill="#006161"></path><path d="M0 288C-30.4 282.9 -60.7 277.9 -86.3 265.7C-111.9 253.5 -132.7 234.1 -158.9 218.7C-185.1 203.3 -216.8 191.8 -233 169.3C-249.2 146.8 -249.9 113.4 -256.5 83.3C-263.1 53.3 -275.5 26.6 -288 0L0 0Z" fill="#007b5c"></path><path d="M0 144C-15.2 141.5 -30.4 138.9 -43.2 132.8C-55.9 126.7 -66.3 117.1 -79.4 109.4C-92.6 101.6 -108.4 95.9 -116.5 84.6C-124.6 73.4 -124.9 56.7 -128.2 41.7C-131.5 26.6 -137.8 13.3 -144 0L0 0Z" fill="#198754"></path></g><g transform="translate(0, 1080)"><path d="M0 -864C92.2 -858.3 184.3 -852.6 267 -821.7C349.7 -790.9 422.8 -734.8 489.6 -673.9C556.4 -613 616.9 -547.1 650.4 -472.6C684 -398 690.7 -314.8 721.9 -234.5C753 -154.3 808.5 -77.2 864 0L0 0Z" fill="#13161d"></path><path d="M0 -720C76.8 -715.2 153.6 -710.5 222.5 -684.8C291.4 -659 352.4 -612.4 408 -561.6C463.7 -510.8 514.1 -455.9 542 -393.8C570 -331.7 575.6 -262.3 601.5 -195.5C627.5 -128.6 673.7 -64.3 720 0L0 0Z" fill="#0e2c3c"></path><path d="M0 -576C61.4 -572.2 122.9 -568.4 178 -547.8C233.1 -527.2 281.9 -489.9 326.4 -449.3C371 -408.7 411.2 -364.8 433.6 -315.1C456 -265.3 460.5 -209.8 481.2 -156.4C502 -102.9 539 -51.4 576 0L0 0Z" fill="#004656"></path><path d="M0 -432C46.1 -429.1 92.2 -426.3 133.5 -410.9C174.8 -395.4 211.4 -367.4 244.8 -337C278.2 -306.5 308.4 -273.6 325.2 -236.3C342 -199 345.4 -157.4 360.9 -117.3C376.5 -77.2 404.2 -38.6 432 0L0 0Z" fill="#006161"></path><path d="M0 -288C30.7 -286.1 61.4 -284.2 89 -273.9C116.6 -263.6 140.9 -244.9 163.2 -224.6C185.5 -204.3 205.6 -182.4 216.8 -157.5C228 -132.7 230.2 -104.9 240.6 -78.2C251 -51.4 269.5 -25.7 288 0L0 0Z" fill="#007b5c"></path><path d="M0 -144C15.4 -143 30.7 -142.1 44.5 -137C58.3 -131.8 70.5 -122.5 81.6 -112.3C92.7 -102.2 102.8 -91.2 108.4 -78.8C114 -66.3 115.1 -52.5 120.3 -39.1C125.5 -25.7 134.7 -12.9 144 0L0 0Z" fill="#198754"></path></g></svg>