<svg id="visual" viewBox="0 0 3840 2160" width="3840" height="2160" xmlns="http://www.w3.org/2000/svg" xmlns:xlink="http://www.w3.org/1999/xlink" version="1.1"><rect x="0" y="0" width="3840" height="2160" fill="#09090B"></rect><defs><linearGradient id="grad1_0" x1="43.8%" y1="0%" x2="100%" y2="100%"><stop offset="14.444444444444446%" stop-color="#007b5c" stop-opacity="1"></stop><stop offset="85.55555555555554%" stop-color="#007b5c" stop-opacity="1"></stop></linearGradient></defs><defs><linearGradient id="grad1_1" x1="43.8%" y1="0%" x2="100%" y2="100%"><stop offset="14.444444444444446%" stop-color="#007b5c" stop-opacity="1"></stop><stop offset="85.55555555555554%" stop-color="#006460" stop-opacity="1"></stop></linearGradient></defs><defs><linearGradient id="grad1_2" x1="43.8%" y1="0%" x2="100%" y2="100%"><stop offset="14.444444444444446%" stop-color="#004b57" stop-opacity="1"></stop><stop offset="85.55555555555554%" stop-color="#006460" stop-opacity="1"></stop></linearGradient></defs><defs><linearGradient id="grad1_3" x1="43.8%" y1="0%" x2="100%" y2="100%"><stop offset="14.444444444444446%" stop-color="#004b57" stop-opacity="1"></stop><stop offset="85.55555555555554%" stop-color="#0a3444" stop-opacity="1"></stop></linearGradient></defs><defs><linearGradient id="grad1_4" x1="43.8%" y1="0%" x2="100%" y2="100%"><stop offset="14.444444444444446%" stop-color="#151e29" stop-opacity="1"></stop><stop offset="85.55555555555554%" stop-color="#0a3444" stop-opacity="1"></stop></linearGradient></defs><defs><linearGradient id="grad1_5" x1="43.8%" y1="0%" x2="100%" y2="100%"><stop offset="14.444444444444446%" stop-color="#151e29" stop-opacity="1"></stop><stop offset="85.55555555555554%" stop-color="#09090b" stop-opacity="1"></stop></linearGradient></defs><defs><linearGradient id="grad2_0" x1="0%" y1="0%" x2="56.3%" y2="100%"><stop offset="14.444444444444446%" stop-color="#007b5c" stop-opacity="1"></stop><stop offset="85.55555555555554%" stop-color="#007b5c" stop-opacity="1"></stop></linearGradient></defs><defs><linearGradient id="grad2_1" x1="0%" y1="0%" x2="56.3%" y2="100%"><stop offset="14.444444444444446%" stop-color="#006460" stop-opacity="1"></stop><stop offset="85.55555555555554%" stop-color="#007b5c" stop-opacity="1"></stop></linearGradient></defs><defs><linearGradient id="grad2_2" x1="0%" y1="0%" x2="56.3%" y2="100%"><stop offset="14.444444444444446%" stop-color="#006460" stop-opacity="1"></stop><stop offset="85.55555555555554%" stop-color="#004b57" stop-opacity="1"></stop></linearGradient></defs><defs><linearGradient id="grad2_3" x1="0%" y1="0%" x2="56.3%" y2="100%"><stop offset="14.444444444444446%" stop-color="#0a3444" stop-opacity="1"></stop><stop offset="85.55555555555554%" stop-color="#004b57" stop-opacity="1"></stop></linearGradient></defs><defs><linearGradient id="grad2_4" x1="0%" y1="0%" x2="56.3%" y2="100%"><stop offset="14.444444444444446%" stop-color="#0a3444" stop-opacity="1"></stop><stop offset="85.55555555555554%" stop-color="#151e29" stop-opacity="1"></stop></linearGradient></defs><defs><linearGradient id="grad2_5" x1="0%" y1="0%" x2="56.3%" y2="100%"><stop offset="14.444444444444446%" stop-color="#09090b" stop-opacity="1"></stop><stop offset="85.55555555555554%" stop-color="#151e29" stop-opacity="1"></stop></linearGradient></defs><g transform="translate(3840, 0)"><path d="M0 1836C-160.9 1826.5 -321.8 1817 -475.2 1773.4C-628.6 1729.9 -774.4 1652.2 -900 1558.8C-1025.6 1465.5 -1131.1 1356.3 -1250.9 1250.9C-1370.6 1145.4 -1504.6 1043.6 -1575.3 909.5C-1646 775.4 -1653.6 608.9 -1686.5 451.9C-1719.4 294.9 -1777.7 147.5 -1836 0L0 0Z" fill="#13151b"></path><path d="M0 1530C-134.1 1522.1 -268.2 1514.2 -396 1477.9C-523.8 1441.6 -645.3 1376.9 -750 1299C-854.7 1221.2 -942.6 1130.3 -1042.4 1042.4C-1142.2 954.5 -1253.8 869.7 -1312.8 757.9C-1371.7 646.1 -1378 507.4 -1405.4 376.6C-1432.9 245.8 -1481.4 122.9 -1530 0L0 0Z" fill="#142937"></path><path d="M0 1224C-107.3 1217.7 -214.6 1211.3 -316.8 1182.3C-419 1153.2 -516.2 1101.5 -600 1039.2C-683.8 977 -754.1 904.2 -833.9 833.9C-913.7 763.6 -1003 695.8 -1050.2 606.3C-1097.4 516.9 -1102.4 405.9 -1124.3 301.3C-1146.3 196.6 -1185.1 98.3 -1224 0L0 0Z" fill="#003f4f"></path><path d="M0 918C-80.5 913.3 -160.9 908.5 -237.6 886.7C-314.3 864.9 -387.2 826.1 -450 779.4C-512.8 732.7 -565.6 678.2 -625.4 625.4C-685.3 572.7 -752.3 521.8 -787.7 454.8C-823 387.7 -826.8 304.4 -843.3 225.9C-859.7 147.5 -888.9 73.7 -918 0L0 0Z" fill="#00585d"></path><path d="M0 612C-53.6 608.8 -107.3 605.7 -158.4 591.1C-209.5 576.6 -258.1 550.7 -300 519.6C-341.9 488.5 -377 452.1 -417 417C-456.9 381.8 -501.5 347.9 -525.1 303.2C-548.7 258.5 -551.2 203 -562.2 150.6C-573.1 98.3 -592.6 49.2 -612 0L0 0Z" fill="#006f5f"></path><path d="M0 306C-26.8 304.4 -53.6 302.8 -79.2 295.6C-104.8 288.3 -129.1 275.4 -150 259.8C-170.9 244.2 -188.5 226.1 -208.5 208.5C-228.4 190.9 -250.8 173.9 -262.6 151.6C-274.3 129.2 -275.6 101.5 -281.1 75.3C-286.6 49.2 -296.3 24.6 -306 0L0 0Z" fill="#007b5c"></path></g><g transform="translate(0, 2160)"><path d="M0 -1836C159 -1816 317.9 -1796 470 -1754.1C622.1 -1712.2 767.2 -1648.3 907.5 -1571.8C1047.8 -1495.3 1183.1 -1406.2 1294 -1294C1404.9 -1181.8 1491.3 -1046.7 1572.7 -908C1654.1 -769.3 1730.4 -627.1 1773.4 -475.2C1816.5 -323.3 1826.2 -161.6 1836 0L0 0Z" fill="#13151b"></path><path d="M0 -1530C132.5 -1513.4 265 -1496.7 391.7 -1461.8C518.4 -1426.8 639.4 -1373.6 756.2 -1309.9C873.1 -1246.1 985.9 -1171.8 1078.3 -1078.3C1170.7 -984.9 1242.8 -872.2 1310.6 -756.7C1378.4 -641.1 1442 -522.6 1477.9 -396C1513.7 -269.4 1521.9 -134.7 1530 0L0 0Z" fill="#142937"></path><path d="M0 -1224C106 -1210.7 212 -1197.4 313.3 -1169.4C414.7 -1141.5 511.5 -1098.9 605 -1047.9C698.5 -996.9 788.7 -937.4 862.7 -862.7C936.6 -787.9 994.2 -697.8 1048.5 -605.3C1102.7 -512.9 1153.6 -418.1 1182.3 -316.8C1211 -215.5 1217.5 -107.8 1224 0L0 0Z" fill="#003f4f"></path><path d="M0 -918C79.5 -908 159 -898 235 -877.1C311 -856.1 383.6 -824.2 453.7 -785.9C523.9 -747.7 591.6 -703.1 647 -647C702.4 -590.9 745.7 -523.3 786.4 -454C827 -384.7 865.2 -313.6 886.7 -237.6C908.2 -161.6 913.1 -80.8 918 0L0 0Z" fill="#00585d"></path><path d="M0 -612C53 -605.3 106 -598.7 156.7 -584.7C207.4 -570.7 255.7 -549.4 302.5 -523.9C349.3 -498.4 394.4 -468.7 431.3 -431.3C468.3 -393.9 497.1 -348.9 524.2 -302.7C551.4 -256.4 576.8 -209 591.1 -158.4C605.5 -107.8 608.7 -53.9 612 0L0 0Z" fill="#006f5f"></path><path d="M0 -306C26.5 -302.7 53 -299.3 78.3 -292.4C103.7 -285.4 127.9 -274.7 151.2 -262C174.6 -249.2 197.2 -234.4 215.7 -215.7C234.1 -197 248.6 -174.4 262.1 -151.3C275.7 -128.2 288.4 -104.5 295.6 -79.2C302.7 -53.9 304.4 -26.9 306 0L0 0Z" fill="#007b5c"></path></g></svg>