<svg xmlns="http://www.w3.org/2000/svg" xmlns:v="https://svgstorm.com"
viewBox = "0 0 500 500"
width="500"
height="500">
<g fill="None" fill-opacity="0.0" stroke="#0B8552" stroke-opacity="0.00" stroke-width="0.3"><path d="
M 0.00 500.00 
L 500.00 500.00
L 500.00 0.00
L 0.00 0.00
L 0.00 500.00
M 352.00 206.00 
C 333.06 204.03 336.45 180.53 324.00 170.00
C 321.67 187.43 323.66 206.82 323.00 225.00
C 309.77 217.07 316.08 199.06 315.00 186.00 C 313.92 172.94 319.24 155.74 303.00 151.00
C 303.00 164.67 303.00 178.33 303.00 192.00
C 291.67 192.00 280.33 192.00 269.00 192.00
C 264.40 209.23 235.61 209.22 231.00 192.00
C 219.67 192.00 208.33 192.00 197.00 192.00
C 197.00 178.00 197.00 164.00 197.00 150.00
C 179.42 156.20 184.26 172.98 184.00 189.00 C 183.74 205.02 184.19 224.65 184.00 241.00
C 171.84 234.02 176.88 221.21 176.00 209.00 C 175.12 196.79 177.50 180.63 175.00 169.00
C 165.16 181.15 161.17 195.38 161.00 211.00 C 160.83 226.62 167.31 239.10 177.75 250.25 C 188.19 261.40 206.37 257.55 210.00 274.00
C 160.38 275.10 136.30 217.05 156.92 176.92 C 177.55 136.80 224.65 118.57 267.22 124.78 C 309.79 130.99 345.17 163.42 352.00 206.00
M 255.00 216.00 
C 280.11 218.64 294.74 250.93 279.23 271.23 C 263.72 291.53 232.54 290.12 220.08 266.92 C 207.62 243.72 227.99 213.16 255.00 216.00
M 149.00 299.00 
C 167.77 301.31 165.49 324.83 177.00 336.00
C 179.33 318.24 177.34 298.51 178.00 280.00
C 191.26 287.88 184.88 305.99 186.00 319.00 C 187.12 332.01 181.68 349.39 198.00 354.00
C 198.00 340.33 198.00 326.67 198.00 313.00
C 209.33 313.00 220.67 313.00 232.00 313.00
C 236.81 295.93 265.18 295.94 270.00 313.00
C 281.33 313.00 292.67 313.00 304.00 313.00
C 304.00 327.00 304.00 341.00 304.00 355.00
C 321.77 349.08 316.67 331.92 317.00 316.00 C 317.33 300.08 316.76 280.27 317.00 264.00
C 329.16 270.98 324.12 283.79 325.00 296.00 C 325.88 308.21 323.50 324.37 326.00 336.00
C 335.92 323.64 339.76 309.91 340.00 294.00 C 340.24 278.09 333.65 266.45 322.75 255.25 C 311.85 244.05 295.89 246.43 291.00 231.00
C 340.54 230.09 364.67 287.83 344.08 328.08 C 323.48 368.32 276.46 386.17 233.98 380.02 C 191.50 373.88 155.97 341.61 149.00 299.00 Z"/>
</g>
<g fill="None" fill-opacity="0.0" stroke="#0B8552" stroke-opacity="0.99" stroke-width="0.3"><path d="
M 352.00 206.00 
C 345.17 163.42 309.79 130.99 267.22 124.78 C 224.65 118.57 177.55 136.80 156.92 176.92 C 136.30 217.05 160.38 275.10 210.00 274.00
C 206.37 257.55 188.19 261.40 177.75 250.25 C 167.31 239.10 160.83 226.62 161.00 211.00 C 161.17 195.38 165.16 181.15 175.00 169.00
C 177.50 180.63 175.12 196.79 176.00 209.00 C 176.88 221.21 171.84 234.02 184.00 241.00
C 184.19 224.65 183.74 205.02 184.00 189.00 C 184.26 172.98 179.42 156.20 197.00 150.00
C 197.00 164.00 197.00 178.00 197.00 192.00
C 208.33 192.00 219.67 192.00 231.00 192.00
C 235.61 209.22 264.40 209.23 269.00 192.00
C 280.33 192.00 291.67 192.00 303.00 192.00
C 303.00 178.33 303.00 164.67 303.00 151.00
C 319.24 155.74 313.92 172.94 315.00 186.00 C 316.08 199.06 309.77 217.07 323.00 225.00
C 323.66 206.82 321.67 187.43 324.00 170.00
C 336.45 180.53 333.06 204.03 352.00 206.00
M 271.00 137.00 
C 271.00 142.00 271.00 147.00 271.00 152.00
C 257.00 152.00 243.00 152.00 229.00 152.00
C 225.23 138.84 232.58 136.13 243.00 136.00 C 253.42 135.87 260.78 134.95 271.00 137.00
M 221.00 140.00 
C 221.00 146.33 221.00 152.67 221.00 159.00
C 240.33 159.00 259.67 159.00 279.00 159.00
C 279.00 152.67 279.00 146.33 279.00 140.00
C 287.21 141.66 296.51 143.79 295.00 154.00 C 293.49 164.21 296.14 173.84 295.00 184.00
C 265.00 184.00 235.00 184.00 205.00 184.00
C 203.85 173.79 206.53 164.28 205.00 154.00 C 203.47 143.72 212.77 141.84 221.00 140.00
M 263.00 192.00 
C 259.15 202.84 240.66 202.67 237.00 192.00
C 245.67 192.00 254.33 192.00 263.00 192.00 Z"/>
</g>
<g fill="None" fill-opacity="0.0" stroke="#0B8552" stroke-opacity="0.00" stroke-width="0.3"><path d="
M 271.00 137.00 
C 260.78 134.95 253.42 135.87 243.00 136.00 C 232.58 136.13 225.23 138.84 229.00 152.00
C 243.00 152.00 257.00 152.00 271.00 152.00
C 271.00 147.00 271.00 142.00 271.00 137.00 Z"/>
</g>
<g fill="None" fill-opacity="0.0" stroke="#0B8552" stroke-opacity="0.00" stroke-width="0.3"><path d="
M 221.00 140.00 
C 212.77 141.84 203.47 143.72 205.00 154.00 C 206.53 164.28 203.85 173.79 205.00 184.00
C 235.00 184.00 265.00 184.00 295.00 184.00
C 296.14 173.84 293.49 164.21 295.00 154.00 C 296.51 143.79 287.21 141.66 279.00 140.00
C 279.00 146.33 279.00 152.67 279.00 159.00
C 259.67 159.00 240.33 159.00 221.00 159.00
C 221.00 152.67 221.00 146.33 221.00 140.00
M 252.00 166.00 
C 256.75 167.21 254.60 176.53 249.32 174.66 C 244.04 172.80 246.77 164.66 252.00 166.00 Z"/>
</g>
<g fill="None" fill-opacity="0.0" stroke="#0B8552" stroke-opacity="0.98" stroke-width="0.3"><path d="
M 252.00 166.00 
C 246.77 164.66 244.04 172.80 249.32 174.66 C 254.60 176.53 256.75 167.21 252.00 166.00 Z"/>
</g>
<g fill="None" fill-opacity="0.0" stroke="#0B8552" stroke-opacity="0.03" stroke-width="0.3"><path d="
M 263.00 192.00 
C 254.33 192.00 245.67 192.00 237.00 192.00
C 240.66 202.67 259.15 202.84 263.00 192.00 Z"/>
</g>
<g fill="None" fill-opacity="0.0" stroke="#0B8552" stroke-opacity="0.97" stroke-width="0.3"><path d="
M 255.00 216.00 
C 227.99 213.16 207.62 243.72 220.08 266.92 C 232.54 290.12 263.72 291.53 279.23 271.23 C 294.74 250.93 280.11 218.64 255.00 216.00
M 255.00 226.00 
C 285.50 229.81 279.34 280.27 247.78 275.22 C 216.22 270.18 222.82 221.98 255.00 226.00 Z"/>
</g>
<g fill="None" fill-opacity="0.0" stroke="#0B8552" stroke-opacity="0.01" stroke-width="0.3"><path d="
M 255.00 226.00 
C 222.82 221.98 216.22 270.18 247.78 275.22 C 279.34 280.27 285.50 229.81 255.00 226.00
M 254.00 241.00 
C 265.12 243.82 261.34 263.39 248.93 260.07 C 236.51 256.76 241.32 237.79 254.00 241.00 Z"/>
</g>
<g fill="None" fill-opacity="0.0" stroke="#0B8552" stroke-opacity="1.00" stroke-width="0.3"><path d="
M 149.00 299.00 
C 155.97 341.61 191.50 373.88 233.98 380.02 C 276.46 386.17 323.48 368.32 344.08 328.08 C 364.67 287.83 340.54 230.09 291.00 231.00
C 295.89 246.43 311.85 244.05 322.75 255.25 C 333.65 266.45 340.24 278.09 340.00 294.00 C 339.76 309.91 335.92 323.64 326.00 336.00
C 323.50 324.37 325.88 308.21 325.00 296.00 C 324.12 283.79 329.16 270.98 317.00 264.00
C 316.76 280.27 317.33 300.08 317.00 316.00 C 316.67 331.92 321.77 349.08 304.00 355.00
C 304.00 341.00 304.00 327.00 304.00 313.00
C 292.67 313.00 281.33 313.00 270.00 313.00
C 265.18 295.94 236.81 295.93 232.00 313.00
C 220.67 313.00 209.33 313.00 198.00 313.00
C 198.00 326.67 198.00 340.33 198.00 354.00
C 181.68 349.39 187.12 332.01 186.00 319.00 C 184.88 305.99 191.26 287.88 178.00 280.00
C 177.34 298.51 179.33 318.24 177.00 336.00
C 165.49 324.83 167.77 301.31 149.00 299.00
M 264.00 313.00 
C 255.33 313.00 246.67 313.00 238.00 313.00
C 241.85 302.16 260.34 302.33 264.00 313.00
M 296.00 321.00 
C 297.15 331.21 294.47 340.72 296.00 351.00 C 297.53 361.28 288.23 363.16 280.00 365.00
C 280.00 358.67 280.00 352.33 280.00 346.00
C 260.67 346.00 241.33 346.00 222.00 346.00
C 222.00 352.33 222.00 358.67 222.00 365.00
C 213.78 363.34 204.49 361.21 206.00 351.00 C 207.51 340.79 204.86 331.16 206.00 321.00
C 236.00 321.00 266.00 321.00 296.00 321.00
M 272.00 353.00 
C 272.00 357.67 272.00 362.33 272.00 367.00
C 258.61 371.56 243.82 369.73 230.00 368.00
C 230.00 363.00 230.00 358.00 230.00 353.00
C 244.00 353.00 258.00 353.00 272.00 353.00 Z"/>
</g>
<g fill="None" fill-opacity="0.0" stroke="#0B8552" stroke-opacity="0.99" stroke-width="0.3"><path d="
M 254.00 241.00 
C 241.32 237.79 236.51 256.76 248.93 260.07 C 261.34 263.39 265.12 243.82 254.00 241.00 Z"/>
</g>
<g fill="None" fill-opacity="0.0" stroke="#0B8552" stroke-opacity="0.03" stroke-width="0.3"><path d="
M 264.00 313.00 
C 260.34 302.33 241.85 302.16 238.00 313.00
C 246.67 313.00 255.33 313.00 264.00 313.00 Z"/>
</g>
<g fill="None" fill-opacity="0.0" stroke="#0B8552" stroke-opacity="0.00" stroke-width="0.3"><path d="
M 296.00 321.00 
C 266.00 321.00 236.00 321.00 206.00 321.00
C 204.86 331.16 207.51 340.79 206.00 351.00 C 204.49 361.21 213.78 363.34 222.00 365.00
C 222.00 358.67 222.00 352.33 222.00 346.00
C 241.33 346.00 260.67 346.00 280.00 346.00
C 280.00 352.33 280.00 358.67 280.00 365.00
C 288.23 363.16 297.53 361.28 296.00 351.00 C 294.47 340.72 297.15 331.21 296.00 321.00
M 252.00 330.00 
C 256.75 331.21 254.60 340.53 249.32 338.66 C 244.04 336.80 246.77 328.66 252.00 330.00 Z"/>
</g>
<g fill="None" fill-opacity="0.0" stroke="#0B8552" stroke-opacity="0.98" stroke-width="0.3"><path d="
M 252.00 330.00 
C 246.77 328.66 244.04 336.80 249.32 338.66 C 254.60 340.53 256.75 331.21 252.00 330.00 Z"/>
</g>
<g fill="None" fill-opacity="0.0" stroke="#0B8552" stroke-opacity="0.00" stroke-width="0.3"><path d="
M 272.00 353.00 
C 258.00 353.00 244.00 353.00 230.00 353.00
C 230.00 358.00 230.00 363.00 230.00 368.00
C 243.82 369.73 258.61 371.56 272.00 367.00
C 272.00 362.33 272.00 357.67 272.00 353.00 Z"/>
</g>
<g fill="#0B8552" fill-opacity="0.00" stroke="None">
<path d="
M 0.00 500.00 
L 500.00 500.00
L 500.00 0.00
L 0.00 0.00
L 0.00 500.00
M 352.00 206.00 
C 333.06 204.03 336.45 180.53 324.00 170.00
C 321.67 187.43 323.66 206.82 323.00 225.00
C 309.77 217.07 316.08 199.06 315.00 186.00 C 313.92 172.94 319.24 155.74 303.00 151.00
C 303.00 164.67 303.00 178.33 303.00 192.00
C 291.67 192.00 280.33 192.00 269.00 192.00
C 264.40 209.23 235.61 209.22 231.00 192.00
C 219.67 192.00 208.33 192.00 197.00 192.00
C 197.00 178.00 197.00 164.00 197.00 150.00
C 179.42 156.20 184.26 172.98 184.00 189.00 C 183.74 205.02 184.19 224.65 184.00 241.00
C 171.84 234.02 176.88 221.21 176.00 209.00 C 175.12 196.79 177.50 180.63 175.00 169.00
C 165.16 181.15 161.17 195.38 161.00 211.00 C 160.83 226.62 167.31 239.10 177.75 250.25 C 188.19 261.40 206.37 257.55 210.00 274.00
C 160.38 275.10 136.30 217.05 156.92 176.92 C 177.55 136.80 224.65 118.57 267.22 124.78 C 309.79 130.99 345.17 163.42 352.00 206.00
M 255.00 216.00 
C 280.11 218.64 294.74 250.93 279.23 271.23 C 263.72 291.53 232.54 290.12 220.08 266.92 C 207.62 243.72 227.99 213.16 255.00 216.00
M 149.00 299.00 
C 167.77 301.31 165.49 324.83 177.00 336.00
C 179.33 318.24 177.34 298.51 178.00 280.00
C 191.26 287.88 184.88 305.99 186.00 319.00 C 187.12 332.01 181.68 349.39 198.00 354.00
C 198.00 340.33 198.00 326.67 198.00 313.00
C 209.33 313.00 220.67 313.00 232.00 313.00
C 236.81 295.93 265.18 295.94 270.00 313.00
C 281.33 313.00 292.67 313.00 304.00 313.00
C 304.00 327.00 304.00 341.00 304.00 355.00
C 321.77 349.08 316.67 331.92 317.00 316.00 C 317.33 300.08 316.76 280.27 317.00 264.00
C 329.16 270.98 324.12 283.79 325.00 296.00 C 325.88 308.21 323.50 324.37 326.00 336.00
C 335.92 323.64 339.76 309.91 340.00 294.00 C 340.24 278.09 333.65 266.45 322.75 255.25 C 311.85 244.05 295.89 246.43 291.00 231.00
C 340.54 230.09 364.67 287.83 344.08 328.08 C 323.48 368.32 276.46 386.17 233.98 380.02 C 191.50 373.88 155.97 341.61 149.00 299.00 Z"/>
</g>
<g fill="#0B8552" fill-opacity="0.99" stroke="None">
<path d="
M 352.00 206.00 
C 345.17 163.42 309.79 130.99 267.22 124.78 C 224.65 118.57 177.55 136.80 156.92 176.92 C 136.30 217.05 160.38 275.10 210.00 274.00
C 206.37 257.55 188.19 261.40 177.75 250.25 C 167.31 239.10 160.83 226.62 161.00 211.00 C 161.17 195.38 165.16 181.15 175.00 169.00
C 177.50 180.63 175.12 196.79 176.00 209.00 C 176.88 221.21 171.84 234.02 184.00 241.00
C 184.19 224.65 183.74 205.02 184.00 189.00 C 184.26 172.98 179.42 156.20 197.00 150.00
C 197.00 164.00 197.00 178.00 197.00 192.00
C 208.33 192.00 219.67 192.00 231.00 192.00
C 235.61 209.22 264.40 209.23 269.00 192.00
C 280.33 192.00 291.67 192.00 303.00 192.00
C 303.00 178.33 303.00 164.67 303.00 151.00
C 319.24 155.74 313.92 172.94 315.00 186.00 C 316.08 199.06 309.77 217.07 323.00 225.00
C 323.66 206.82 321.67 187.43 324.00 170.00
C 336.45 180.53 333.06 204.03 352.00 206.00
M 271.00 137.00 
C 271.00 142.00 271.00 147.00 271.00 152.00
C 257.00 152.00 243.00 152.00 229.00 152.00
C 225.23 138.84 232.58 136.13 243.00 136.00 C 253.42 135.87 260.78 134.95 271.00 137.00
M 221.00 140.00 
C 221.00 146.33 221.00 152.67 221.00 159.00
C 240.33 159.00 259.67 159.00 279.00 159.00
C 279.00 152.67 279.00 146.33 279.00 140.00
C 287.21 141.66 296.51 143.79 295.00 154.00 C 293.49 164.21 296.14 173.84 295.00 184.00
C 265.00 184.00 235.00 184.00 205.00 184.00
C 203.85 173.79 206.53 164.28 205.00 154.00 C 203.47 143.72 212.77 141.84 221.00 140.00
M 263.00 192.00 
C 259.15 202.84 240.66 202.67 237.00 192.00
C 245.67 192.00 254.33 192.00 263.00 192.00 Z"/>
</g>
<g fill="#0B8552" fill-opacity="0.00" stroke="None">
<path d="
M 271.00 137.00 
C 260.78 134.95 253.42 135.87 243.00 136.00 C 232.58 136.13 225.23 138.84 229.00 152.00
C 243.00 152.00 257.00 152.00 271.00 152.00
C 271.00 147.00 271.00 142.00 271.00 137.00 Z"/>
</g>
<g fill="#0B8552" fill-opacity="0.00" stroke="None">
<path d="
M 221.00 140.00 
C 212.77 141.84 203.47 143.72 205.00 154.00 C 206.53 164.28 203.85 173.79 205.00 184.00
C 235.00 184.00 265.00 184.00 295.00 184.00
C 296.14 173.84 293.49 164.21 295.00 154.00 C 296.51 143.79 287.21 141.66 279.00 140.00
C 279.00 146.33 279.00 152.67 279.00 159.00
C 259.67 159.00 240.33 159.00 221.00 159.00
C 221.00 152.67 221.00 146.33 221.00 140.00
M 252.00 166.00 
C 256.75 167.21 254.60 176.53 249.32 174.66 C 244.04 172.80 246.77 164.66 252.00 166.00 Z"/>
</g>
<g fill="#0B8552" fill-opacity="0.98" stroke="None">
<path d="
M 252.00 166.00 
C 246.77 164.66 244.04 172.80 249.32 174.66 C 254.60 176.53 256.75 167.21 252.00 166.00 Z"/>
</g>
<g fill="#0B8552" fill-opacity="0.03" stroke="None">
<path d="
M 263.00 192.00 
C 254.33 192.00 245.67 192.00 237.00 192.00
C 240.66 202.67 259.15 202.84 263.00 192.00 Z"/>
</g>
<g fill="#0B8552" fill-opacity="0.97" stroke="None">
<path d="
M 255.00 216.00 
C 227.99 213.16 207.62 243.72 220.08 266.92 C 232.54 290.12 263.72 291.53 279.23 271.23 C 294.74 250.93 280.11 218.64 255.00 216.00
M 255.00 226.00 
C 285.50 229.81 279.34 280.27 247.78 275.22 C 216.22 270.18 222.82 221.98 255.00 226.00 Z"/>
</g>
<g fill="#0B8552" fill-opacity="0.01" stroke="None">
<path d="
M 255.00 226.00 
C 222.82 221.98 216.22 270.18 247.78 275.22 C 279.34 280.27 285.50 229.81 255.00 226.00
M 254.00 241.00 
C 265.12 243.82 261.34 263.39 248.93 260.07 C 236.51 256.76 241.32 237.79 254.00 241.00 Z"/>
</g>
<g fill="#0B8552" fill-opacity="1.00" stroke="None">
<path d="
M 149.00 299.00 
C 155.97 341.61 191.50 373.88 233.98 380.02 C 276.46 386.17 323.48 368.32 344.08 328.08 C 364.67 287.83 340.54 230.09 291.00 231.00
C 295.89 246.43 311.85 244.05 322.75 255.25 C 333.65 266.45 340.24 278.09 340.00 294.00 C 339.76 309.91 335.92 323.64 326.00 336.00
C 323.50 324.37 325.88 308.21 325.00 296.00 C 324.12 283.79 329.16 270.98 317.00 264.00
C 316.76 280.27 317.33 300.08 317.00 316.00 C 316.67 331.92 321.77 349.08 304.00 355.00
C 304.00 341.00 304.00 327.00 304.00 313.00
C 292.67 313.00 281.33 313.00 270.00 313.00
C 265.18 295.94 236.81 295.93 232.00 313.00
C 220.67 313.00 209.33 313.00 198.00 313.00
C 198.00 326.67 198.00 340.33 198.00 354.00
C 181.68 349.39 187.12 332.01 186.00 319.00 C 184.88 305.99 191.26 287.88 178.00 280.00
C 177.34 298.51 179.33 318.24 177.00 336.00
C 165.49 324.83 167.77 301.31 149.00 299.00
M 264.00 313.00 
C 255.33 313.00 246.67 313.00 238.00 313.00
C 241.85 302.16 260.34 302.33 264.00 313.00
M 296.00 321.00 
C 297.15 331.21 294.47 340.72 296.00 351.00 C 297.53 361.28 288.23 363.16 280.00 365.00
C 280.00 358.67 280.00 352.33 280.00 346.00
C 260.67 346.00 241.33 346.00 222.00 346.00
C 222.00 352.33 222.00 358.67 222.00 365.00
C 213.78 363.34 204.49 361.21 206.00 351.00 C 207.51 340.79 204.86 331.16 206.00 321.00
C 236.00 321.00 266.00 321.00 296.00 321.00
M 272.00 353.00 
C 272.00 357.67 272.00 362.33 272.00 367.00
C 258.61 371.56 243.82 369.73 230.00 368.00
C 230.00 363.00 230.00 358.00 230.00 353.00
C 244.00 353.00 258.00 353.00 272.00 353.00 Z"/>
</g>
<g fill="#0B8552" fill-opacity="0.99" stroke="None">
<path d="
M 254.00 241.00 
C 241.32 237.79 236.51 256.76 248.93 260.07 C 261.34 263.39 265.12 243.82 254.00 241.00 Z"/>
</g>
<g fill="#0B8552" fill-opacity="0.03" stroke="None">
<path d="
M 264.00 313.00 
C 260.34 302.33 241.85 302.16 238.00 313.00
C 246.67 313.00 255.33 313.00 264.00 313.00 Z"/>
</g>
<g fill="#0B8552" fill-opacity="0.00" stroke="None">
<path d="
M 296.00 321.00 
C 266.00 321.00 236.00 321.00 206.00 321.00
C 204.86 331.16 207.51 340.79 206.00 351.00 C 204.49 361.21 213.78 363.34 222.00 365.00
C 222.00 358.67 222.00 352.33 222.00 346.00
C 241.33 346.00 260.67 346.00 280.00 346.00
C 280.00 352.33 280.00 358.67 280.00 365.00
C 288.23 363.16 297.53 361.28 296.00 351.00 C 294.47 340.72 297.15 331.21 296.00 321.00
M 252.00 330.00 
C 256.75 331.21 254.60 340.53 249.32 338.66 C 244.04 336.80 246.77 328.66 252.00 330.00 Z"/>
</g>
<g fill="#0B8552" fill-opacity="0.98" stroke="None">
<path d="
M 252.00 330.00 
C 246.77 328.66 244.04 336.80 249.32 338.66 C 254.60 340.53 256.75 331.21 252.00 330.00 Z"/>
</g>
<g fill="#0B8552" fill-opacity="0.00" stroke="None">
<path d="
M 272.00 353.00 
C 258.00 353.00 244.00 353.00 230.00 353.00
C 230.00 358.00 230.00 363.00 230.00 368.00
C 243.82 369.73 258.61 371.56 272.00 367.00
C 272.00 362.33 272.00 357.67 272.00 353.00 Z"/>
</g>
</svg>